<svg xmlns="http://www.w3.org/2000/svg"  viewBox="0 0 23.995 23.995" width="24px" height="24px"><path d="M8.5,23L8.5,23C6.567,23,5,21.433,5,19.5l0,0C5,17.567,6.567,16,8.5,16H12v3.5 C12,21.433,10.433,23,8.5,23z" opacity=".35"/><path d="M15.5,9H12V2h3.5C17.433,2,19,3.567,19,5.5l0,0C19,7.433,17.433,9,15.5,9z"/><path d="M8.5,9H12V2H8.5C6.567,2,5,3.567,5,5.5l0,0C5,7.433,6.567,9,8.5,9z" opacity=".35"/><path d="M8.5,16H12V9H8.5C6.567,9,5,10.567,5,12.5l0,0C5,14.433,6.567,16,8.5,16z"/><circle cx="15.5" cy="12.5" r="3.5" opacity=".35"/></svg>